#!OML:ASF H:\Male1\Project 1\Capture day 1\Session 1\Male1.ASF
:FULLY-SPECIFIED
:DEGREES
118
root -29.6373 14.8306 0.643442 12.367 83.5028 10.6432
lowerback 4.47246 3.08189 -2.58108
upperback 2.83388 4.10084 -2.8836
thorax 0.445454 2.08029 -1.68079
lowerneck -10.9446 3.52452 7.07824
upperneck 15.9255 3.90027 -1.26908
head 6.83961 2.24626 -1.20482
rclavicle 9.93923e-017 1.27222e-014
rhumerus -35.4139 9.58191 -97.5535
rradius 46.1182
rwrist -25.6501
rhand -20.4962 -1.9295
rfingers 7.12502
rthumb 5.86079 -31.8284
lclavicle 9.93923e-017 1.27222e-014
lhumerus -40.3245 -13.6718 91.7744
lradius 33.635
lwrist 5.00004
lhand -24.2775 9.6572
lfingers 7.12502
lthumb 2.2094 39.6255
rfemur -11.4142 14.6094 20.3642
rtibia 36.0151
rfoot -34.3789 -27.3353
rtoes -31.3787
lfemur -8.42166 -13.816 -25.9242
ltibia 33.5076
lfoot -32.892 22.2376
ltoes -9.56754
119
root -29.5707 14.8224 0.614036 12.3469 83.3206 10.3741
lowerback 4.4464 3.14661 -2.70516
upperback 2.84072 4.18569 -2.93922
thorax 0.463707 2.1221 -1.67079
lowerneck -11.0357 3.53754 7.01424
upperneck 15.7501 3.89289 -1.13309
head 6.79482 2.24499 -1.1509
rclavicle -2.14687e-014 3.73715e-014
rhumerus -35.4256 10.1218 -97.7298
rradius 47.4309
rwrist -25.8336
rhand -19.8843 -2.17473
rfingers 7.12502
rthumb 6.45152 -32.0565
lclavicle -2.14687e-014 3.73715e-014
lhumerus -40.7087 -13.5258 91.8454
lradius 33.8691
lwrist 5.85168
lhand -24.8052 9.55714
lfingers 7.12502
lthumb 1.69967 39.5301
rfemur -11.565 14.4642 20.1555
rtibia 36.242
rfoot -34.3564 -27.2319
rtoes -31.9475
lfemur -8.30374 -13.5607 -26.1024
ltibia 33.3948
lfoot -33.4541 22.2272
ltoes -10.1155
120
root -29.498 14.811 0.583156 12.897 83.1926 10.7277
lowerback 4.43856 3.18872 -2.89151
upperback 2.86462 4.23929 -3.00629
thorax 0.485534 2.14796 -1.63735
lowerneck -11.1017 3.54197 6.95383
upperneck 15.5647 3.87613 -0.998052
head 6.74221 2.23943 -1.09932
rclavicle 3.37934e-015 -9.54166e-015
rhumerus -35.4998 10.7223 -97.922
rradius 48.8546
rwrist -25.9255
rhand -19.4121 -2.29236
rfingers 7.12502
rthumb 6.90734 -32.1597
lclavicle 3.37934e-015 -9.54166e-015
lhumerus -41.0224 -13.1756 91.8076
lradius 34.0888
lwrist 6.82714
lhand -25.2807 9.37583
lfingers 7.12502
lthumb 1.24048 39.352
rfemur -11.6461 14.2231 19.888
rtibia 36.5046
rfoot -34.5179 -27.0329
rtoes -32.2356
lfemur -8.1099 -13.3825 -26.3755
ltibia 33.2706
lfoot -33.9261 22.252
ltoes -10.6508
121
root -29.4195 14.7963 0.551355 13.7225 83.1436 11.3976
lowerback 4.45297 3.20063 -3.10752
upperback 2.89773 4.25157 -3.07443
thorax 0.502105 2.15299 -1.58805
lowerneck -11.1494 3.53923 6.91198
upperneck 15.3883 3.85111 -0.876296
head 6.68973 2.23033 -1.05614
rclavicle 3.4191e-014 -9.54166e-015
rhumerus -35.632 11.356 -98.1228
rradius 50.3668
rwrist -25.9298
rhand -19.1333 -2.27944
rfingers 7.12502
rthumb 7.17649 -32.1378
lclavicle 3.4191e-014 -9.54166e-015
lhumerus -41.2503 -12.6035 91.634
lradius 34.2811
lwrist 7.79322
lhand -25.6713 9.18142
lfingers 7.12502
lthumb 0.863188 39.1594
rfemur -11.6766 13.8707 19.6088
rtibia 36.8175
rfoot -34.6564 -26.8532
rtoes -32.5956
lfemur -7.85957 -13.2902 -26.6902
ltibia 33.1464
lfoot -34.305 22.2707
ltoes -11.0631
122
root -29.3377 14.7804 0.51948 13.7256 83.195 11.2299
lowerback 4.49095 3.18294 -3.229
upperback 2.91279 4.22396 -3.10459
thorax 0.490346 2.13854 -1.55257
lowerneck -11.1839 3.52961 6.88432
upperneck 15.2287 3.81798 -0.764438
head 6.64066 2.2179 -1.01936
rclavicle -4.77083e-015 1.27222e-014
rhumerus -35.8207 11.9831 -98.3163
rradius 51.9506
rwrist -25.8572
rhand -19.0491 -2.15206
rfingers 7.12502
rthumb 7.25777 -32.0076
lclavicle -4.77083e-015 1.27222e-014
lhumerus -41.3905 -11.8456 91.3336
lradius 34.4547
lwrist 8.62757
lhand -25.984 8.93106
lfingers 7.12502
lthumb 0.561159 38.9101
rfemur -11.7396 13.4202 19.4709
rtibia 37.1965
rfoot -34.6916 -26.7244
rtoes -32.9945
lfemur -7.63468 -13.2698 -26.8644
ltibia 33.0501
lfoot -34.6057 22.2345
ltoes -11.2079
123
root -29.2548 14.7654 0.486949 12.3983 83.2646 9.67931
lowerback 4.55898 3.16117 -3.2103
upperback 2.89287 4.18985 -3.0882
thorax 0.431805 2.1217 -1.54967
lowerneck -11.2258 3.52264 6.84741
upperneck 15.0951 3.78821 -0.63896
head 6.60096 2.20828 -0.976143
rclavicle -8.54774e-015 1.59028e-015
rhumerus -36.0564 12.5784 -98.4852
rradius 53.5876
rwrist -25.7281
rhand -19.1223 -1.91104
rfingers 7.12502
rthumb 7.18705 -31.769
lclavicle -8.54774e-015 1.59028e-015
lhumerus -41.4405 -10.9721 90.9436
lradius 34.6364
lwrist 9.257
lhand -26.2459 8.62943
lfingers 7.12502
lthumb 0.308241 38.609
rfemur -11.9477 12.8562 19.4939
rtibia 37.6929
rfoot -34.5246 -26.5477
rtoes -33.3204
lfemur -7.48435 -13.2702 -26.8463
ltibia 32.9938
lfoot -34.8711 22.1572
ltoes -11.0319
124
root -29.172 14.7515 0.453982 9.89364 83.3134 6.91488
lowerback 4.68836 3.14055 -3.07421
upperback 2.84743 4.15538 -3.03559
thorax 0.318001 2.10558 -1.5792
lowerneck -11.2915 3.52342 6.79892
upperneck 14.9787 3.76837 -0.506312
head 6.57099 2.20361 -0.927379
rclavicle -1.59028e-014 2.8625e-014
rhumerus -36.3253 13.1229 -98.6226
rradius 55.2587
rwrist -25.5594
rhand -19.3124 -1.53838
rfingers 7.12502
rthumb 7.0036 -31.4025
lclavicle -1.59028e-014 2.8625e-014
lhumerus -41.4001 -10.0864 90.5139
lradius 34.8631
lwrist 9.67813
lhand -26.4551 8.37675
lfingers 7.12502
lthumb 0.106201 38.3565
rfemur -12.3584 12.1687 19.6492
rtibia 38.4053
rfoot -34.152 -26.2626
rtoes -33.4104
lfemur -7.38458 -13.261 -26.6711
ltibia 32.9648
lfoot -35.125 22.0447
ltoes -10.6102
125
root -29.0888 14.7382 0.420708 7.13253 83.2845 3.89014
lowerback 4.89873 3.12812 -2.92424
upperback 2.79396 4.12838 -2.97977
thorax 0.151635 2.09353 -1.61877
lowerneck -11.381 3.53961 6.74015
upperneck 14.8575 3.77035 -0.380069
head 6.54422 2.20796 -0.876681
rclavicle -1.15295e-014 -3.97569e-015
rhumerus -36.6217 13.618 -98.7322
rradius 56.9423
rwrist -25.3531
rhand -19.6099 -1.01673
rfingers 7.12502
rthumb 6.71643 -30.8902
lclavicle -1.15295e-014 -3.97569e-015
lhumerus -41.2757 -9.28349 90.0942
lradius 35.1797
lwrist 9.9769
lhand -26.6609 8.16292
lfingers 7.12502
lthumb -0.092572 38.1426
rfemur -13.0311 11.3825 19.8255
rtibia 39.4816
rfoot -33.6091 -25.8663
rtoes -33.1696
lfemur -7.26685 -13.2104 -26.4742
ltibia 32.9017
lfoot -35.3658 21.9233
ltoes -10.05
126
root -29.0038 14.7244 0.386917 5.31565 83.184 1.83875
lowerback 5.18881 3.11518 -2.87449
upperback 2.75683 4.09584 -2.96066
thorax -0.0461459 2.07869 -1.64456
lowerneck -11.4908 3.57916 6.68255
upperneck 14.7074 3.80508 -0.274209
head 6.51322 2.2255 -0.829578
rclavicle 4.23411e-014 1.19271e-014
rhumerus -36.9334 14.0731 -98.8238
rradius 58.6058
rwrist -25.1198
rhand -20.0305 -0.359479
rfingers 7.12502
rthumb 6.31033 -30.2455
lclavicle 4.23411e-014 1.19271e-014
lhumerus -41.0658 -8.63838 89.718
lradius 35.623
lwrist 10.282
lhand -26.8732 7.98332
lfingers 7.12502
lthumb -0.297581 37.9629
rfemur -14.008 10.5184 19.8984
rtibia 41.0683
rfoot -32.9597 -25.4174
rtoes -32.5298
lfemur -7.05154 -13.1241 -26.4171
ltibia 32.7228
lfoot -35.5581 21.8343
ltoes -9.54787
127
root -28.9146 14.7093 0.352431 5.59682 83.0373 1.9401
lowerback 5.54035 3.09321 -3.04346
upperback 2.75784 4.04315 -3.02218
thorax -0.247304 2.05381 -1.63314
lowerneck -11.6116 3.64234 6.64202
upperneck 14.5077 3.87312 -0.204187
head 6.4703 2.25569 -0.793839
rclavicle -3.51849e-014 2.38542e-015
rhumerus -37.2453 14.485 -98.9093
rradius 60.2062
rwrist -24.8781
rhand -20.5983 0.378426
rfingers 7.12502
rthumb 5.76224 -29.5232
lclavicle -3.51849e-014 2.38542e-015
lhumerus -40.7604 -8.1749 89.381
lradius 36.228
lwrist 10.679
lhand -27.1032 7.82324
lfingers 7.12502
lthumb -0.519745 37.8024
rfemur -15.3063 9.58892 19.738
rtibia 43.2483
rfoot -32.2703 -25.0008
rtoes -31.5521
lfemur -6.66585 -13.0181 -26.6664
ltibia 32.3441
lfoot -35.6612 21.8124
ltoes -9.24948
128
root -28.8188 14.6914 0.317393 8.3502 82.8235 4.59191
lowerback 5.93949 3.06415 -3.49291
upperback 2.80847 3.96862 -3.18212
thorax -0.434286 2.01846 -1.56704
lowerneck -11.7261 3.73159 6.61778
upperneck 14.2472 3.9798 -0.173058
head 6.40914 2.30072 -0.77021
rclavicle 2.64384e-014 7.95139e-015
rhumerus -37.5475 14.8577 -98.9951
rradius 61.6773
rwrist -24.6413
rhand -21.337 1.16081
rfingers 7.12502
rthumb 5.04896 -28.759
lclavicle 2.64384e-014 7.95139e-015
lhumerus -40.3567 -7.86191 89.0603
lradius 37.0064
lwrist 11.1508
lhand -27.2948 7.83337
lfingers 7.12502
lthumb -0.704774 37.812
rfemur -16.9006 8.61291 19.2931
rtibia 45.9984
rfoot -31.5742 -24.7193
rtoes -30.4757
lfemur -6.05805 -12.8909 -27.3085
ltibia 31.7274
lfoot -35.6694 21.8836
ltoes -9.17316
129
root -28.7136 14.672 0.28136 12.8793 82.5604 9.08244
lowerback 6.34798 3.00968 -4.14442
upperback 2.91084 3.85086 -3.42352
thorax -0.578295 1.96241 -1.46828
lowerneck -11.8215 3.84672 6.61363
upperneck 13.923 4.12526 -0.181346
head 6.32688 2.36101 -0.759728
rclavicle 9.02482e-014 -4.21423e-014
rhumerus -37.8176 15.1799 -99.075
rradius 62.9335
rwrist -24.4222
rhand -22.2399 1.99342
rfingers 7.12502
rthumb 4.17707 -27.9454
lclavicle 9.02482e-014 -4.21423e-014
lhumerus -39.8412 -7.68334 88.7425
lradius 37.9738
lwrist 11.6565
lhand -27.4694 7.88288
lfingers 7.12502
lthumb -0.873483 37.8608
rfemur -18.745 7.56677 18.6512
rtibia 49.1825
rfoot -30.926 -24.4936
rtoes -29.2239
lfemur -5.23332 -12.7891 -28.2755
ltibia 30.8706
lfoot -35.577 22.0506
ltoes -9.27743
130
root -28.5987 14.6523 0.245046 17.545 82.2747 13.7317
lowerback 6.75872 2.92247 -4.80857
upperback 3.0406 3.6867 -3.68741
thorax -0.691264 1.88421 -1.38082
lowerneck -11.8851 3.98236 6.63638
upperneck 13.5553 4.30217 -0.228888
head 6.22793 2.43418 -0.764205
rclavicle -2.36554e-014 1.74931e-014
rhumerus -38.072 15.4201 -99.1375
rradius 63.9233
rwrist -24.2377
rhand -23.2472 2.8691
rfingers 7.12502
rthumb 3.2044 -27.0866
lclavicle -2.36554e-014 1.74931e-014
lhumerus -39.2223 -7.63962 88.4297
lradius 39.1531
lwrist 12.1571
lhand -27.5969 8.13737
lfingers 7.12502
lthumb -0.996606 38.1148
rfemur -20.8007 6.47665 18.0588
rtibia 52.5906
rfoot -30.2724 -24.3125
rtoes -27.9432
lfemur -4.24939 -12.7287 -29.3302
ltibia 29.8148
lfoot -35.3979 22.2764
ltoes -9.4236
